<svg width="125" height="27" viewBox="0 0 125 27" fill="none" xmlns="http://www.w3.org/2000/svg">
<path d="M20.4824 0H6.42092C2.87474 0 0 2.88507 0 6.44398V20.556C0 24.1149 2.87474 27 6.42092 27H20.4824C24.0286 27 26.9033 24.1149 26.9033 20.556V6.44398C26.9033 2.88507 24.0286 0 20.4824 0Z" fill="#22B573"/>
<path d="M22.1031 16.1574C21.9873 15.3068 21.7145 14.2279 20.8049 13.1366C18.5557 10.4313 14.7974 11.2362 12.5276 10.4147C11.4154 10.0122 10.7001 8.86279 10.8696 7.68436C10.9523 7.0993 11.2128 6.53914 11.6386 6.10345C11.7461 5.99142 11.8619 5.88768 11.9901 5.7964C12.2795 5.57233 12.6226 5.40221 12.9824 5.27358C13.3462 5.14909 13.7348 5.07855 14.1317 5.05366C14.6114 5.02046 15.0951 5.16154 15.5788 5.24453L15.1736 6.30262L17.5841 5.81714L16.1122 3.83789L15.6367 5.08685C15.1488 4.90428 14.6775 4.67192 14.14 4.61382C13.71 4.56818 13.2676 4.56403 12.8252 4.63457C12.3828 4.70511 11.9405 4.83374 11.527 5.04951C11.3161 5.15324 11.1218 5.28187 10.9316 5.4188C10.7414 5.55988 10.5637 5.72171 10.3983 5.89598C10.237 6.0744 10.0841 6.26528 9.95175 6.4686C9.82358 6.67606 9.70367 6.89183 9.61271 7.12005C8.36822 9.76735 10.2701 12.6014 13.9416 13.3358C14.0697 13.3607 14.1979 13.3898 14.3219 13.4271C14.6816 13.5308 15.0413 13.6263 15.3886 13.7134C15.5954 13.7674 15.7856 13.8171 15.9675 13.8669C16.1411 13.9167 16.3024 13.9707 16.4347 14.0246C16.567 14.0827 16.6869 14.1366 16.8027 14.2113C16.8605 14.2404 16.9184 14.286 16.9763 14.3234C17.0342 14.3649 17.0879 14.4064 17.1458 14.4478C17.3649 14.6221 17.5634 14.8171 17.7288 15.0329C18.1546 15.4893 18.4441 16.8503 17.3567 17.6014C17.2037 17.6927 17.1624 17.7134 16.8233 17.813C16.7324 17.8379 16.6207 17.8545 16.5132 17.8711C16.0543 17.9126 15.4713 17.9416 14.6155 17.7342C14.5493 17.7176 14.4832 17.6968 14.417 17.6761C12.7095 17.1159 12.081 15.979 11.589 15.2445C11.5105 15.1283 11.2624 14.701 11.1962 14.5765C11.0185 14.2487 10.605 14.1283 10.2494 14.2653L8.87677 14.7922C8.40957 14.9707 8.19457 15.5184 8.42197 15.9707V15.979C8.64524 16.4271 8.90985 16.8545 9.20753 17.2528C9.80704 18.0495 10.5678 18.7425 11.4567 19.2321C12.3828 19.6844 12.8583 19.9541 14.384 20.1574C15.091 20.2445 15.8104 20.1574 16.5298 20.1076L16.29 19.4561L17.981 19.8254L16.9267 21.203L16.5628 20.2113C15.8352 20.3441 15.1075 20.5018 14.3591 20.4893C13.5653 20.4769 12.3043 20.34 11.1673 19.8254C10.1461 19.3939 9.2158 18.7176 8.45091 17.8918C8.0664 17.481 7.72324 17.0288 7.42142 16.5474C7.3718 16.4686 7.30152 16.3441 7.2271 16.2113C7.02037 15.8379 6.56971 15.6761 6.17279 15.8254L5.23425 16.1864C4.81667 16.3441 4.62648 16.8379 4.83734 17.2321C4.97791 17.4935 5.13089 17.7508 5.288 17.9997C5.59396 18.4769 5.93299 18.9375 6.30096 19.3773C7.04518 20.2487 7.92583 21.0454 8.94706 21.6595C10.7373 22.7508 12.788 23.286 15.43 23.1408C15.9799 23.0993 16.5339 23.008 17.1003 22.8628C17.6626 22.7176 18.2373 22.5142 18.7996 22.2196C19.3619 21.9292 19.9159 21.535 20.3997 21.0454C21.425 19.9167 22.3305 18.1989 22.0948 16.1657L22.1031 16.1574Z" fill="#FFFFEE"/>
<path d="M40.2743 16.4065C40.0924 16.0497 39.8485 15.7302 39.5343 15.448C39.22 15.1659 38.8603 14.9169 38.451 14.7053C38.0376 14.4937 37.6034 14.3152 37.1404 14.1783C36.4334 13.9667 35.8835 13.7509 35.5072 13.5393C35.1269 13.3277 34.9367 13.0787 34.9367 12.7883C34.9367 12.6223 34.9863 12.4771 35.0855 12.3484C35.1847 12.2157 35.3129 12.1119 35.47 12.0289C35.6271 11.9459 35.7967 11.8837 35.9744 11.8422C36.1564 11.7966 36.33 11.7758 36.4913 11.7758C36.9667 11.7758 37.4009 11.8878 37.8019 12.1119C38.1988 12.336 38.5585 12.643 38.8686 13.0331L40.4769 11.3982C39.4268 10.1451 38.0789 9.51855 36.4292 9.51855C35.9166 9.51855 35.408 9.59324 34.9077 9.74677C34.4075 9.89615 33.9609 10.1161 33.564 10.3941C33.1712 10.6762 32.8529 11.0248 32.6089 11.448C32.365 11.8713 32.241 12.3401 32.241 12.8671C32.241 13.3443 32.3361 13.7634 32.5221 14.1244C32.7082 14.4895 32.9604 14.809 33.2705 15.0912C33.5806 15.3733 33.9361 15.6098 34.3372 15.8049C34.7341 15.9999 35.1475 16.1576 35.5693 16.282C36.2928 16.4978 36.851 16.7094 37.252 16.9335C37.6489 17.1493 37.8515 17.4231 37.8515 17.7509C37.8515 18.0787 37.7109 18.2986 37.4298 18.4522C37.1528 18.6098 36.7972 18.6887 36.3755 18.6887C35.8876 18.6887 35.4328 18.5725 35.007 18.3401C34.5852 18.1078 34.209 17.7841 33.8865 17.3733L32.2616 19.0248C32.7867 19.7011 33.3945 20.1908 34.0891 20.4978C34.7837 20.8049 35.5403 20.9584 36.3672 20.9584C36.8551 20.9584 37.3471 20.8837 37.8515 20.7426C38.3518 20.5974 38.8025 20.3858 39.2035 20.1036C39.6004 19.8215 39.927 19.4729 40.1793 19.0497C40.4273 18.6306 40.5555 18.1534 40.5555 17.614C40.5555 17.1659 40.4645 16.7592 40.2826 16.4024L40.2743 16.4065Z" fill="#383838"/>
<path d="M47.4685 18.4065C47.1667 18.4812 46.9104 18.5186 46.6995 18.5186C46.5341 18.5186 46.3811 18.502 46.2406 18.4646C46.1 18.4273 45.9718 18.3568 45.8561 18.2572C45.7444 18.1576 45.6535 18.0207 45.5873 17.8422C45.517 17.668 45.484 17.4439 45.484 17.17V12.2323H48.2127V9.79244H45.484V6.61816H44.6033C44.4048 7.75509 44.0369 8.6804 43.4911 9.39825C42.9454 10.1078 42.2384 10.6472 41.366 11.0124V12.2323H42.7882V16.9833C42.7882 17.6597 42.8461 18.2489 42.966 18.7468C43.0818 19.2447 43.272 19.6597 43.5325 19.9875C43.7971 20.3111 44.1444 20.5518 44.5826 20.7094C45.0209 20.8671 45.5542 20.946 46.191 20.946C46.5548 20.946 46.9145 20.9003 47.2783 20.8173C47.638 20.7302 47.9564 20.5974 48.2293 20.419V18.0331C48.0184 18.2115 47.7621 18.336 47.4644 18.4107L47.4685 18.4065Z" fill="#383838"/>
<path d="M58.309 12.3938C58.1189 11.8046 57.784 11.2735 57.3168 10.8005C56.9571 10.4229 56.4857 10.12 55.9028 9.87931C55.3157 9.64279 54.65 9.52246 53.9016 9.52246C53.1037 9.52246 52.3305 9.67184 51.5739 9.97474C50.8214 10.2735 50.1558 10.7009 49.5811 11.2528L51.1729 12.8669C51.5698 12.5059 51.9708 12.2569 52.3719 12.1158C52.7688 11.9789 53.1574 11.9084 53.5337 11.9084C54.3068 11.9084 54.8981 12.0951 55.3074 12.4727C55.7208 12.8503 55.9276 13.3565 55.9276 13.9913H54.373C53.6618 13.9913 53.0003 14.066 52.3801 14.2196C51.76 14.3689 51.2225 14.5971 50.7635 14.9042C50.3005 15.2113 49.9325 15.593 49.6679 16.0494C49.3991 16.5059 49.2668 17.0411 49.2668 17.6552C49.2668 18.1449 49.3495 18.5889 49.519 18.9872C49.6844 19.3855 49.9242 19.7341 50.2385 20.0287C50.5485 20.3274 50.9165 20.5474 51.3424 20.705C51.7641 20.8627 52.2396 20.9415 52.7647 20.9415C53.3228 20.9415 53.8727 20.8793 54.4019 20.7548C54.9311 20.6303 55.4314 20.4063 55.9069 20.0785V20.6594H58.5985V14.6511C58.5985 13.7382 58.5034 12.9872 58.3132 12.398L58.309 12.3938ZM55.9028 17.954C55.5017 18.1905 55.1048 18.3731 54.712 18.4976C54.3192 18.622 53.9223 18.6843 53.5254 18.6843C53.0623 18.6843 52.6861 18.564 52.3925 18.3274C52.099 18.0909 51.9543 17.7797 51.9543 17.4063C51.9543 17.1407 52.0287 16.9167 52.1693 16.7299C52.3099 16.5432 52.5042 16.3897 52.7481 16.2693C52.9921 16.1532 53.2773 16.066 53.6081 16.0162C53.9389 15.9664 54.2944 15.9415 54.6665 15.9415H55.9028V17.954Z" fill="#383838"/>
<path d="M65.9331 18.4065C65.6313 18.4812 65.375 18.5186 65.1641 18.5186C64.9987 18.5186 64.8457 18.502 64.7052 18.4646C64.5646 18.4273 64.4364 18.3568 64.3207 18.2572C64.209 18.1576 64.1181 18.0207 64.0519 17.8422C63.9816 17.668 63.9485 17.4439 63.9485 17.17V12.2323H66.6773V9.79244H63.9485V6.61816H63.0679C62.8653 7.75509 62.4973 8.6804 61.9557 9.39825C61.41 10.1078 60.703 10.6472 59.8306 11.0124V12.2323H61.2528V16.9833C61.2528 17.6597 61.3107 18.2489 61.4306 18.7468C61.5464 19.2447 61.7366 19.6597 62.0012 19.9875C62.2617 20.3111 62.609 20.5518 63.0472 20.7094C63.4855 20.8671 64.0188 20.946 64.6556 20.946C65.0194 20.946 65.3791 20.9003 65.7429 20.8173C66.1026 20.7302 66.421 20.5974 66.6939 20.419V18.0331C66.483 18.2115 66.2267 18.336 65.929 18.4107L65.9331 18.4065Z" fill="#383838"/>
<path d="M78.99 12.9125C78.6799 12.2196 78.254 11.622 77.7165 11.12C77.1791 10.622 76.563 10.2279 75.8643 9.9457C75.1655 9.66354 74.4337 9.52246 73.6771 9.52246C72.8792 9.52246 72.1308 9.67184 71.4321 9.97474C70.7333 10.2735 70.1214 10.6801 69.5963 11.1947C69.0754 11.705 68.6619 12.3108 68.3643 13.0038C68.0666 13.6967 67.9177 14.4395 67.9177 15.2279C67.9177 16.0162 68.0666 16.7548 68.3643 17.4519C68.6619 18.1449 69.0713 18.7465 69.5881 19.261C70.1049 19.7714 70.7168 20.1822 71.4238 20.481C72.1267 20.7797 72.8874 20.9291 73.6978 20.9291C74.5082 20.9291 75.2524 20.8129 75.9718 20.5806C76.6912 20.3482 77.423 19.9498 78.1672 19.3897L76.4638 17.6801C76.1372 17.9664 75.7361 18.1988 75.2482 18.3648C74.7604 18.5349 74.2766 18.622 73.7887 18.622C73.3918 18.622 73.0239 18.564 72.6931 18.4436C72.3623 18.3274 72.0646 18.1615 71.8042 17.954C71.5437 17.7465 71.3204 17.5059 71.1385 17.2237C70.9566 16.9415 70.8202 16.6428 70.7209 16.3316H79.3621C79.3869 16.1324 79.4076 15.9332 79.4282 15.7507C79.4489 15.564 79.4572 15.3814 79.4572 15.203C79.4572 14.3648 79.3001 13.5971 78.99 12.9042V12.9125ZM70.7209 14.1615C70.9318 13.4727 71.308 12.9167 71.8414 12.5017C72.3789 12.0826 72.9825 11.871 73.6564 11.871C74.3304 11.871 74.9588 12.0785 75.5004 12.5017C76.0421 12.9208 76.4183 13.4768 76.6333 14.1615H70.7209Z" fill="#383838"/>
<path d="M84.8072 18.6676C84.5591 18.6676 84.3441 18.5846 84.1622 18.4145C83.9803 18.2485 83.8893 17.9373 83.8893 17.485V8.03688H82.0164L83.8191 5.07422H81.1399V17.9539C81.1399 18.4933 81.2184 18.9497 81.3838 19.3315C81.5451 19.7132 81.7601 20.0244 82.0371 20.2609C82.3141 20.4975 82.6325 20.6717 83.0004 20.7796C83.3684 20.8875 83.7529 20.9373 84.1498 20.9373C84.4351 20.9373 84.7121 20.9082 84.9809 20.8419C85.2496 20.7796 85.4894 20.6966 85.7003 20.597V18.3813C85.415 18.568 85.1132 18.6593 84.7989 18.6593L84.8072 18.6676Z" fill="#383838"/>
<path d="M87.0565 9.78792V20.6593H89.7853V9.78792H87.0565ZM87.0193 5.09082V5.10327L88.7227 7.90825H89.8225V5.09082H87.0151H87.0193Z" fill="#383838"/>
<path d="M101.742 11.9996C101.507 11.427 101.188 10.954 100.796 10.593C100.403 10.232 99.9563 9.96229 99.4519 9.78802C98.9433 9.6096 98.4182 9.52246 97.8683 9.52246C97.6203 9.52246 97.3598 9.54736 97.0911 9.59715C96.8223 9.64694 96.5618 9.71748 96.3055 9.81292C96.0492 9.90835 95.8011 10.0245 95.5654 10.1615C95.3297 10.2984 95.1272 10.4478 94.9659 10.6096L94.9494 9.80047H92.2537V20.6511H94.9494V12.7548C95.276 12.4395 95.6398 12.2154 96.0409 12.0702C96.4378 11.925 96.8471 11.8544 97.2606 11.8544C97.5376 11.8544 97.8022 11.9001 98.0585 11.9955C98.3149 12.0909 98.5464 12.232 98.7449 12.427C98.9475 12.622 99.1046 12.8669 99.2245 13.1573C99.3402 13.4519 99.4023 13.7922 99.4023 14.1822V20.6594H102.094V14.0494C102.094 13.2611 101.978 12.5806 101.738 12.0038L101.742 11.9996Z" fill="#383838"/>
<path d="M114.853 12.9125C114.543 12.2196 114.117 11.622 113.58 11.12C113.042 10.622 112.426 10.2279 111.727 9.9457C111.029 9.66354 110.297 9.52246 109.54 9.52246C108.742 9.52246 107.994 9.67184 107.295 9.97474C106.596 10.2735 105.984 10.6801 105.464 11.1947C104.938 11.705 104.525 12.3108 104.227 13.0038C103.93 13.6967 103.781 14.4395 103.781 15.2279C103.781 16.0162 103.93 16.7548 104.227 17.4519C104.525 18.1449 104.934 18.7465 105.451 19.261C105.968 19.7714 106.584 20.1822 107.287 20.481C107.994 20.7797 108.75 20.9291 109.561 20.9291C110.371 20.9291 111.115 20.8129 111.835 20.5806C112.554 20.3482 113.286 19.9498 114.03 19.3897L112.327 17.6801C112.004 17.9664 111.599 18.1988 111.111 18.3648C110.623 18.5349 110.14 18.622 109.652 18.622C109.255 18.622 108.887 18.564 108.56 18.4436C108.23 18.3274 107.932 18.1615 107.671 17.954C107.411 17.7465 107.188 17.5059 107.006 17.2237C106.828 16.9415 106.687 16.6428 106.588 16.3316H115.229C115.254 16.1324 115.275 15.9332 115.295 15.7507C115.312 15.564 115.32 15.3814 115.32 15.203C115.32 14.3648 115.163 13.5971 114.853 12.9042V12.9125ZM106.584 14.1615C106.795 13.4727 107.171 12.9167 107.704 12.5017C108.242 12.0826 108.846 11.871 109.519 11.871C110.193 11.871 110.822 12.0785 111.363 12.5017C111.909 12.9208 112.281 13.4768 112.496 14.1615H106.584Z" fill="#383838"/>
<path d="M124.668 16.4065C124.486 16.0497 124.243 15.7302 123.928 15.448C123.614 15.1659 123.254 14.9169 122.841 14.7053C122.432 14.4937 121.993 14.3152 121.53 14.1783C120.823 13.9667 120.273 13.7509 119.897 13.5393C119.517 13.3277 119.327 13.0787 119.327 12.7883C119.327 12.6223 119.376 12.4771 119.475 12.3484C119.575 12.2157 119.703 12.1119 119.86 12.0289C120.017 11.9459 120.182 11.8837 120.364 11.8422C120.546 11.7966 120.716 11.7758 120.881 11.7758C121.357 11.7758 121.791 11.8878 122.192 12.1119C122.589 12.336 122.944 12.643 123.258 13.0331L124.867 11.3982C123.817 10.1451 122.469 9.51855 120.819 9.51855C120.306 9.51855 119.798 9.59324 119.298 9.74677C118.797 9.89615 118.351 10.1161 117.954 10.3941C117.561 10.6762 117.243 11.0248 116.999 11.448C116.755 11.8671 116.631 12.3401 116.631 12.8671C116.631 13.3443 116.726 13.7634 116.912 14.1244C117.098 14.4895 117.35 14.809 117.66 15.0912C117.975 15.3733 118.33 15.6098 118.727 15.8049C119.128 15.9999 119.537 16.1576 119.963 16.282C120.687 16.4978 121.245 16.7094 121.646 16.9335C122.043 17.1493 122.246 17.4231 122.246 17.7509C122.246 18.0787 122.105 18.2986 121.824 18.4522C121.547 18.6098 121.191 18.6887 120.765 18.6887C120.278 18.6887 119.827 18.5725 119.401 18.3401C118.979 18.1078 118.603 17.7841 118.281 17.3733L116.656 19.0248C117.181 19.7011 117.789 20.1908 118.483 20.4978C119.174 20.8049 119.934 20.9584 120.761 20.9584C121.249 20.9584 121.741 20.8837 122.246 20.7426C122.746 20.5974 123.196 20.3858 123.598 20.1036C123.994 19.8215 124.321 19.4729 124.573 19.0497C124.821 18.6306 124.95 18.1534 124.95 17.614C124.95 17.1659 124.859 16.7592 124.677 16.4024L124.668 16.4065Z" fill="#383838"/>
</svg>
